# xmcd
#
# Track frame offsets: 
#        150
#        14009
#        26871
#        42366
#        58293
#        72885
#        88024
#        101238
#        120601
#        131978
#        145977
#        161410
#        178562
#        184201
#        189144
#        192696
#        198348
#        203314
#        207578
#        213563
#        220353
#        225696
#        230462
#        234264
#
# Disc length: 3244 seconds
#
# Revision: 0
# Processed by: cddbd v1.5.2PL0 Copyright (c) Steve Scherf et al.
# Submitted via: ExactAudioCopy v0.95b4
#
DISCID=710caa18
DTITLE=Brian McComas - Demo Worktapes vol.1
DYEAR=2005
DGENRE=Country
TTITLE0=South of the Border
TTITLE1=Happy 4 ever
TTITLE2=It's esay to
TTITLE3=Bahama Baby
TTITLE4=HillBilly Rock'n roll song
TTITLE5=She's not you
TTITLE6=Leavin' California
TTITLE7=Feel too good to Hurt that bad day
TTITLE8=Special
TTITLE9=I would if I could
TTITLE10=You're the one I've been waiting for
TTITLE11=I Believe It If I See It
TTITLE12=interview
TTITLE13=interview
TTITLE14=interview
TTITLE15=interview
TTITLE16=interview
TTITLE17=interview
TTITLE18=interview
TTITLE19=interview
TTITLE20=interview
TTITLE21=interview
TTITLE22=interview
TTITLE23=interview 24
EXTD=
EXTT0=
EXTT1=
EXTT2=
EXTT3=
EXTT4=
EXTT5=
EXTT6=
EXTT7=
EXTT8=
EXTT9=
EXTT10=
EXTT11=
EXTT12=
EXTT13=
EXTT14=
EXTT15=
EXTT16=
EXTT17=
EXTT18=
EXTT19=
EXTT20=
EXTT21=
EXTT22=
EXTT23=
PLAYORDER=
